<svg width="13" height="13" viewBox="0 0 13 13" fill="none" xmlns="http://www.w3.org/2000/svg">
<path d="M2.94488 7.13823C3.02047 7.06264 3.05827 6.94925 3.05827 6.84846C3.05827 6.74768 3.02047 6.64689 2.94488 6.5587C2.7811 6.39492 2.52914 6.39492 2.36536 6.5587L1.93701 6.98705L1.93701 1.64531L2.36536 2.07366C2.52914 2.23744 2.7811 2.23744 2.94488 2.07366C3.02047 1.99807 3.05827 1.88468 3.05827 1.7839C3.05827 1.68311 3.02047 1.58232 2.94488 1.49413L1.82362 0.372871C1.65984 0.209091 1.40787 0.209091 1.2441 0.372871L0.122835 1.49413C-0.0409449 1.65791 -0.0409449 1.90988 0.122835 2.07366C0.286614 2.23744 0.538583 2.23744 0.702363 2.07366L1.13071 1.64531L1.13071 6.98705L0.714961 6.5713C0.551181 6.40752 0.299213 6.40752 0.135433 6.5713C-0.0283465 6.73508 -0.0283465 6.98705 0.135433 7.15083L1.25669 8.25949C1.42047 8.42327 1.67244 8.42327 1.83622 8.25949L2.94488 7.13823Z" fill="white"/>
<path d="M5.67876 9.88464C5.75435 9.80905 5.79215 9.69567 5.79215 9.59488C5.79215 9.49409 5.75435 9.39331 5.67876 9.30512C5.51498 9.14134 5.26301 9.14134 5.09923 9.30512L3.99057 10.4264C3.82679 10.5902 3.82679 10.8421 3.99057 11.0059L5.11183 12.1272C5.27561 12.2909 5.52758 12.2909 5.69136 12.1272C5.85514 11.9634 5.85514 11.7114 5.69136 11.5476L5.26301 11.1193H10.6047L10.189 11.535C10.0252 11.6988 10.0252 11.9508 10.189 12.1146C10.3528 12.2783 10.6047 12.2783 10.7685 12.1146L11.8898 10.9933C11.9654 10.9177 12.0032 10.8043 12.0032 10.7035C12.0032 10.6028 11.9654 10.502 11.8898 10.4138L10.7685 9.29252C10.6047 9.12874 10.3528 9.12874 10.189 9.29252C10.0252 9.4563 10.0252 9.70827 10.189 9.87205L10.6173 10.3004H5.26301L5.67876 9.88464Z" fill="white"/>
<path d="M3.8772 0.662562L3.8772 7.96965C3.8772 8.19642 4.05358 8.3728 4.28035 8.3728H11.5874C11.8142 8.3728 11.9906 8.19642 11.9906 7.96965V0.662562C11.9906 0.435791 11.8142 0.259413 11.5874 0.259413H4.28035C4.05358 0.259413 3.8772 0.435791 3.8772 0.662562ZM11.1843 1.06571V7.5665H4.6835V1.07831L11.1843 1.07831V1.06571Z" fill="white"/>
</svg>
